<svg id="Layer_1" enable-background="new 0 0 512 512" height="512" viewBox="0 0 512 512" width="512" xmlns="http://www.w3.org/2000/svg"><g><path d="m446 347h-380v-262h110c65.088 93.092 142.247 109.981 230 60h40z" fill="#e7e9ef"/><g fill="#8690af"><path d="m150 187h-140v240h462v-100c-152.119-11.697-240.231-58.911-322-140z"/><circle cx="134" cy="327" r="20"/><circle cx="245" cy="327" r="20"/></g><path d="m275 267h-141l-13.79-5.516c-14.298-5.719-28.747 7.905-23.878 22.514l7.668 23.002h171z" fill="#ff7b79"/><path d="m432 247-.189 10.818c-.45 49.385-40.61 89.182-89.997 89.182h30.186l80 80h50v-180z" fill="#cfd3df"/><path d="m90 347-80 80h442l-80-80z" fill="#cfd3df"/><g><circle cx="502" cy="326.75" r="10"/><path d="m509.069 239.93c-1.859-1.86-4.439-2.93-7.069-2.93h-46v-92c0-5.523-4.478-10-10-10h-40c-1.735 0-3.441.452-4.949 1.311-85.169 48.508-156.103 29.851-216.855-57.041-1.871-2.676-4.931-4.27-8.196-4.27h-110c-5.523 0-10 4.477-10 10v92h-46c-5.523 0-10 4.477-10 10v240c0 5.455 4.556 10 10 10h442 50c2.63 0 5.21-1.07 7.069-2.93 1.86-1.86 2.931-4.44 2.931-7.07v-55.25c0-5.51-4.49-10-10-10s-10 4.49-10 10v45.25h-35.857l-70.255-70.255c.023 0 .046.001.069.001 16.349-8.051 30.202-20.431 40.063-35.796 10.141-15.79 15.601-34.1 15.79-52.96l.01-.99h50.18v24.75c0 5.51 4.49 10 10 10s10-4.49 10-10v-34.75c0-2.63-1.07-5.21-2.931-7.07zm-489.069-42.93h125.9c24.091 23.604 47.869 43.359 72.322 60h-82.296l-12.001-4.8c-10.27-4.109-21.651-1.947-29.701 5.643-8.049 7.589-10.875 18.823-7.377 29.318l7.667 23.001c1.36 4.084 5.182 6.838 9.486 6.838h1.72c-1.11 3.13-1.72 6.494-1.72 10s.61 6.87 1.72 10h-15.72c-2.652 0-5.196 1.054-7.071 2.929l-62.929 62.928zm91.208 100-5.388-16.164c-1.474-4.422.994-7.376 2.124-8.442 1.129-1.066 4.223-3.357 8.553-1.625l13.79 5.516c1.181.473 2.442.715 3.714.715h131v20zm143.792 30c0 5.514-4.486 10-10 10s-10-4.486-10-10 4.486-10 10-10 10 4.486 10 10zm-38.28 10h-54.44c1.11-3.13 1.72-6.494 1.72-10s-.61-6.87-1.72-10h54.44c-1.11 3.13-1.72 6.494-1.72 10s.61 6.87 1.72 10zm-72.72-10c0 5.514-4.486 10-10 10s-10-4.486-10-10 4.486-10 10-10 10 4.486 10 10zm283.857 90h-393.715l60-60h273.715zm-154.577-100h1.72c5.522 0 10-4.477 10-10v-12.857c29.947 13.24 62.656 23.491 98.743 30.891-12.218 7.574-26.588 11.966-41.933 11.966h-68.53c1.11-3.13 1.72-6.494 1.72-10s-.61-6.87-1.72-10zm162.72-80h-4c-2.641 0-5.13 1.02-7.01 2.86-1.881 1.85-2.94 4.32-2.99 6.97l-.19 10.81v.09c-.172 19.255-7.236 36.922-18.818 50.671-45.961-8.106-84.412-20.318-117.991-35.984v-5.417c0-5.523-4.478-10-10-10h-19.68c-37.125-21.353-68.357-47.428-98.279-77.101-1.874-1.857-4.404-2.899-7.042-2.899h-74v-82h94.836c32.715 45.358 69.447 73.393 109.236 83.353 39.696 9.937 82.936 2.076 128.551-23.353h27.377z"/></g></g></svg>