<svg height="512" viewBox="0 0 61 60" width="512" xmlns="http://www.w3.org/2000/svg"><path id="Shape" d="m58.388 25.139-1.616-1.178c-1.0714699-.7813413-2.4094448-1.1050345-3.7195781-.8998691-1.3101333.2051655-2.4851027.922383-3.2664219 1.9938691l-1.286 1.764c-1.2144243-.3617952-2.5252051.078467-3.275 1.1l-1.178 1.616c-.7527106 1.0220663-.7716053 2.4098197-.047 3.452l-9.014 12.363-2.052-.786c-1.1694724-.4358706-1.9420359-1.5559678-1.934-2.804v-2c-.0117361-.8381937.3398027-1.6404608.964-2.2 2.5488572-2.1120313 4.0242737-5.2498114 4.025-8.56 1.0644998.0055887 2.0873187-.4133702 2.8420123-1.1641223.7546935-.7507521 1.1790024-1.7713632 1.1789877-2.8358777v-3c.0025292-1.1482803-.4906411-2.2417842-1.353-3 1.039-4.542-.131-9.688-4.49-11.383-1.762-5.335-7.355-7.617-12.967-7.617-9.389 0-14.019 9.544-11.571 18.769-1.03313941.7516053-1.64277548 1.9533955-1.639 3.231v3c-.00001467 1.0645145.42429417 2.0851256 1.17898773 2.8358777.75469355.7507521 1.77751247 1.169711 2.84201227 1.1641223.0022081 3.3072142 1.4762608 6.4418669 4.022 8.553.6271679.5606008.9800123 1.3659034.967 2.207v2c.0076998 1.2490718-.7661889 2.369752-1.937 2.805l-9.749 3.72c-3.19203956 1.2307466-5.301925 4.2939318-5.314 7.715v3c0 .5522847.44771525 1 1 1h46c.5522847 0 1-.4477153 1-1v-3c-.0018672-1.9769047-.7113288-3.8878395-2-5.387l7.694-10.55c1.2162786.3664933 2.5314299-.0744291 3.281-1.1l1.178-1.616c.7422267-1.0267519.7594358-2.4090887.043-3.454 1.338-1.834 2.562-3.09 2.187-5.484-.1956276-1.3148651-.9153097-2.4944943-1.995-3.27zm-17.019 28.43-2.424-1.769 5.892-8.08c.2167625-.2883784.2613942-.6711545.1167947-1.0016678-.1445996-.3305132-.4560116-.5575202-.8149184-.5940432-.3589069-.036523-.709663.1231006-.9178763.417711l-5.892 8.08-2.429-1.766 10.61-14.544 2.424 1.768-2.357 3.232c-.3154518.446347-.2140996 1.0632754.227574 1.385238s1.0600218.2296672 1.388426-.207238l2.357-3.231 2.424 1.768zm-8.07 1.7c.9117511.4562108 1.7411089 1.0611621 2.454 1.79l-1.256.7c-.3434747.1808037-.7598759.1505491-1.0736076-.0780057-.3137317-.2285547-.4701884-.6156291-.4033924-.9979943zm4.251.794c-1.0600373-1.2092792-2.3748937-2.1686121-3.85-2.809l.485-2.448 5.548 4.046zm-35.55-.063c.00896595-2.5921569 1.60745546-4.9132621 4.026-5.846l9.747-3.718c1.9388699-.7417091 3.2213894-2.6001104 3.227-4.676v-2c.0178372-1.4309013-.5952079-2.7970847-1.676-3.735-2.2541014-1.8753528-3.4870341-4.7073147-3.324-7.635.076052-.3761749-.0172058-.7667603-.255-1.068-.359-.389-.663-.322-1.755-.322-1.1045695 0-2-.8954305-2-2v-3c-.00267637-.5312489.2071778-1.0415133.5828323-1.4171677.3756544-.3756545.8859188-.5855087 1.4171677-.5828323.5522847 0 1-.4477153 1-1s-.4477153-1-1-1c-.1577803.0064958-.3150473.0221891-.471.047-1.993-7.917 1.664-16.047 9.681-16.047 4.84 0 10.059 1.986 11.167 6.631.155.656.744.726 1.072.851 3.28 1.269 3.986 5.113 3.343 8.614-.2518203-.0671162-.5113902-.1007393-.772-.1-.5522847 0-1 .4477153-1 1s.4477153 1 1 1c1.1045695 0 2 .8954305 2 2v3c0 1.1045695-.8954305 2-2 2-1.015 0-1.38-.084-1.755.322-.2383352.3025308-.3315879.6945574-.255 1.072.1629508 2.9288869-1.0711967 5.7618246-3.327 7.637-1.07914.938024-1.6909986 2.3032768-1.673 3.733v2c.0052332 2.0743305 1.286017 3.9317254 3.223 4.674l1.543.59c-1.453 1.992-.98 1.344-1.085 1.5-.163.245-.038-.23-1.623 7.764-.1151644.5745269-.0573965 1.1703009.166 1.712h-29.224zm44 2h-7.82c4.225-2.343 4-2.179 4.191-2.423.224-.288-.51.711 2.405-3.286 1.412 1.916 1.224 3.549 1.224 5.709zm10.536-21.835-1.179 1.616c-.1562782.2151354-.3918045.3591704-.6545159.4002659-.2627114.0410956-.5309724-.0241326-.7454841-.1812659l-8.08-5.894c-.2149787-.1564294-.3588146-.392028-.3997211-.6547306-.0409065-.2627025.0244841-.5308807.1817211-.7452694l1.178-1.616c.1562782-.2151354.3918045-.3591704.6545159-.4002659.2627114-.0410956.5309724.0241326.7454841.1812659l8.08 5.892c.2157134.1563085.360144.3922258.4012573.6554259.0411133.2632002-.0244893.5319258-.1822573.7465741zm1.33-5.219-1.178 1.616-6.464-4.713 1.176-1.617c.4690092-.6427871 1.1741698-1.0729177 1.960335-1.1957561.7861651-.1228383 1.5889271.0716795 2.231665.5407561 1.547 1.127 2.576 1.626 2.812 3.138.12581.785673-.0679164 1.5890252-.538 2.231z"/></svg>