<svg height="512" viewBox="0 0 64 64" width="512" xmlns="http://www.w3.org/2000/svg"><g id="outline"><path d="m42 3a1 1 0 0 0 -1-1h-2a3 3 0 0 0 -3 3 1 1 0 0 1 -1 1h-3a4 4 0 0 0 -4 4v12h14zm-2 17h-10v-8h10zm0-10h-10a2 2 0 0 1 2-2h3a3 3 0 0 0 3-3 1 1 0 0 1 1-1h1z"/><path d="m32 14h2v2h-2z"/><path d="m36 14h2v2h-2z"/><path d="m17 24a3 3 0 0 0 0 6h7v1a1 1 0 0 0 1 1h3v5a1 1 0 0 0 .375.781l5.127 4.1-7.16 6.377a.986.986 0 0 0 -.342.742v3h-6.815l-1.828-.7a.834.834 0 0 0 -.114-.036 2.939 2.939 0 0 0 -1.507 5.681l2.942 1a1.011 1.011 0 0 0 .322.055h4.184a2.966 2.966 0 0 0 -.184 1 3 3 0 0 0 6 0 2.966 2.966 0 0 0 -.184-1h12.368a2.966 2.966 0 0 0 -.184 1 3 3 0 0 0 6 0 2.966 2.966 0 0 0 -.184-1h4.184a1.011 1.011 0 0 0 .322-.053l2.862-.977a2.94 2.94 0 1 0 -1.427-5.7.834.834 0 0 0 -.114.036l-1.828.7h-3.815v-1.006a3 3 0 0 0 -3-3v-5a1 1 0 0 0 -.4-.8l-1.6-1.2v-9h3a1 1 0 0 0 1-1v-1h7a1 1 0 0 0 1-1v-8a3 3 0 0 0 -6 0v3zm7 4h-7a1 1 0 0 1 0-2h7zm22-2h3a1 1 0 0 0 1-1v-4a1 1 0 0 1 2 0v7h-6zm-14.149 12h2.816l7.333 5.5v4.5h-2v-3a1 1 0 0 0 -.375-.781zm6.149 0h2v1.5zm-3.087 10.708 3.087-2.573v5.865h-2v-1a2.984 2.984 0 0 0 -1.087-2.292zm.173-5.558 1.72 1.375-4.169 3.475h-3.008zm-7.086 6.85h5a1 1 0 0 1 1 1v1h-6zm-2 10a1 1 0 1 1 1-1 1 1 0 0 1 -1 1zm18 0a1 1 0 1 1 1-1 1 1 0 0 1 -1 1zm7-6a.991.991 0 0 0 .357-.066l1.934-.74a.941.941 0 0 1 1.119.924.975.975 0 0 1 -.791.936l-2.784.946h-31.67l-2.865-.97a.941.941 0 0 1 .408-1.836l1.934.74a.991.991 0 0 0 .358.066zm-7-4a1 1 0 0 1 1 1v1h-5v-2zm-10-24h2v1a1 1 0 0 1 -2 0zm-8 0h6v1a3 3 0 0 0 6 0v-1h6v4h-2v-2h-2v8h-10v-8h-2v2h-2z"/><path d="m9 32h14v2h-14z"/><path d="m11 36h15v2h-15z"/><path d="m14 46h10v2h-10z"/><path d="m10 46h2v2h-2z"/></g></svg>