<svg height="512" viewBox="0 0 512 512" width="512" xmlns="http://www.w3.org/2000/svg"><path d="m377.72 392.09a7.985 7.985 0 0 0 -4.111 1.14l-.069.04a8 8 0 1 0 8.38 13.63l.149-.09h-.009a8.007 8.007 0 0 0 2.48-10.91 7.927 7.927 0 0 0 -6.82-3.81z"/><path d="m120.27 92.08a8.278 8.278 0 0 0 1.85-.22 8 8 0 0 0 -1.841-15.79 8.277 8.277 0 0 0 -1.849.22 8 8 0 0 0 1.84 15.79z"/><path d="m349.9 408a8.085 8.085 0 0 0 -3.75.94 582.46 582.46 0 0 1 -90.109 38.7l-.02.01c-6.71-2.13-66.55-21.65-124.64-58.84-33.96-21.72-60.89-45.31-80.061-70.13-23.409-30.32-35.29-62.61-35.3-95.96-.01-51.51 29.73-97.79 77.61-120.78a8 8 0 1 0 -6.92-14.43 154.486 154.486 0 0 0 -62.55 54.56 146.876 146.876 0 0 0 -24.14 80.65c-.02 37.03 12.98 72.61 38.64 105.75 15.779 20.38 36.409 39.97 61.29 58.22a497.9 497.9 0 0 0 67.93 41.33 591.308 591.308 0 0 0 83.25 34.86l4.89 1.47 4.75-1.42.11-.04a593.424 593.424 0 0 0 92.8-39.83 8 8 0 0 0 -3.78-15.06z"/><path d="m485.39 138.39a152.253 152.253 0 0 0 -19-22.3 156.095 156.095 0 0 0 -49.34-32.26 158.033 158.033 0 0 0 -60.31-11.83h-.02a158.428 158.428 0 0 0 -56.76 10.45l-8.731 3.33 18.561 32.45-55.971 47.98-.029.02 14.744 25.77h-53.557l-12.547-21.92 65.97-50.71.051-.04-7.03-6.43a154.482 154.482 0 0 0 -48.96-30.37 157.923 157.923 0 0 0 -57.102-10.53h-.059c-1.271 0-2.43.01-3.53.04a8 8 0 1 0 .35 15.99c1.09-.02 2.159-.03 3.18-.03 32.61.01 63.04 10.55 88.019 30.47l-61.679 47.41-.04.03 14.939 26.09h-20.521a56 56 0 1 0 0 112h44.606l-40.263 40.263 91.657 81.472v-78.5l43.233-43.235h52.767a56 56 0 0 0 0-112h-81.041l-12.727-22.23 55.96-47.97.03-.03-15.69-27.44a143 143 0 0 1 42.19-6.33 140.762 140.762 0 0 1 98.52 39.58c26.28 25.48 40.75 59.27 40.76 95.14-.01 30.01-9.64 59.21-28.6 86.79-16 23.25-38.771 45.58-67.68 66.36a8 8 0 1 0 9.35 12.99 354.419 354.419 0 0 0 38.71-32.04 253.246 253.246 0 0 0 32.8-38.24c20.86-30.25 31.429-62.51 31.42-95.86a145.692 145.692 0 0 0 -12.27-58.71 149.291 149.291 0 0 0 -14.36-25.62zm-229.372 202.215v49.5l-52.344-46.528 39.577-39.577h49.373zm26.307-132.605h85.693a40 40 0 0 1 0 80h-192a40 40 0 1 1 0-80z"/><path d="m312.018 280a8 8 0 0 0 8-8v-48a8 8 0 1 0 -16 0v48a8 8 0 0 0 8 8z"/><path d="m232.018 280a8 8 0 0 0 8-8v-48a8 8 0 0 0 -16 0v48a8 8 0 0 0 8 8z"/><path d="m172.46 225.35a8.34 8.34 0 0 0 -1.38-.74 8.071 8.071 0 0 0 -1.5-.45 7.854 7.854 0 0 0 -3.13 0 7.712 7.712 0 0 0 -1.49.45 7.611 7.611 0 0 0 -1.38.74 7.557 7.557 0 0 0 -2.21 2.21 7.959 7.959 0 0 0 -.74 1.38 8.583 8.583 0 0 0 -.46 1.5 8.187 8.187 0 0 0 0 3.12 8.583 8.583 0 0 0 .46 1.5 7.959 7.959 0 0 0 .74 1.38 7.557 7.557 0 0 0 2.21 2.21 7.611 7.611 0 0 0 1.38.74 7.712 7.712 0 0 0 1.49.45 7.606 7.606 0 0 0 1.57.16 7.512 7.512 0 0 0 1.56-.16 8.071 8.071 0 0 0 1.5-.45 8.34 8.34 0 0 0 1.38-.74 7.3 7.3 0 0 0 1.21-.99 7.991 7.991 0 0 0 0-11.32 7.3 7.3 0 0 0 -1.21-.99z"/><path d="m207.4 228.94a7.834 7.834 0 0 0 -1.729-2.6 7.3 7.3 0 0 0 -1.21-.99 8.34 8.34 0 0 0 -1.38-.74 8.071 8.071 0 0 0 -1.5-.45 7.854 7.854 0 0 0 -3.13 0 7.712 7.712 0 0 0 -1.49.45 7.611 7.611 0 0 0 -1.38.74 7.774 7.774 0 0 0 -1.221.99 8.572 8.572 0 0 0 -1 1.22 8.729 8.729 0 0 0 -.729 1.38 8.583 8.583 0 0 0 -.46 1.5 8.187 8.187 0 0 0 0 3.12 8.583 8.583 0 0 0 .46 1.5 8.729 8.729 0 0 0 .729 1.38 8.572 8.572 0 0 0 1 1.22 8.1 8.1 0 0 0 5.66 2.34 7.512 7.512 0 0 0 1.56-.16 8.071 8.071 0 0 0 1.5-.45 8.34 8.34 0 0 0 1.38-.74 7.865 7.865 0 0 0 2.939-3.59 7.738 7.738 0 0 0 .46-1.5 7.638 7.638 0 0 0 0-3.12 7.738 7.738 0 0 0 -.459-1.5z"/><path d="m207.4 260.94a7.834 7.834 0 0 0 -1.729-2.6 7.3 7.3 0 0 0 -1.21-.99 8.34 8.34 0 0 0 -1.38-.74 8.071 8.071 0 0 0 -1.5-.45 7.854 7.854 0 0 0 -3.13 0 7.712 7.712 0 0 0 -1.49.45 7.611 7.611 0 0 0 -1.38.74 7.774 7.774 0 0 0 -1.221.99 8.572 8.572 0 0 0 -1 1.22 8.729 8.729 0 0 0 -.729 1.38 8.583 8.583 0 0 0 -.46 1.5 8.187 8.187 0 0 0 0 3.12 8.583 8.583 0 0 0 .46 1.5 8.729 8.729 0 0 0 .729 1.38 8.572 8.572 0 0 0 1 1.22 8.1 8.1 0 0 0 5.66 2.34 7.512 7.512 0 0 0 1.56-.16 8.071 8.071 0 0 0 1.5-.45 8.34 8.34 0 0 0 1.38-.74 7.865 7.865 0 0 0 2.939-3.59 7.738 7.738 0 0 0 .46-1.5 7.638 7.638 0 0 0 0-3.12 7.738 7.738 0 0 0 -.459-1.5z"/><path d="m175.4 260.94a7.834 7.834 0 0 0 -1.729-2.6 7.3 7.3 0 0 0 -1.21-.99 8.34 8.34 0 0 0 -1.38-.74 8.071 8.071 0 0 0 -1.5-.45 7.854 7.854 0 0 0 -3.13 0 7.712 7.712 0 0 0 -1.49.45 7.611 7.611 0 0 0 -1.38.74 7.557 7.557 0 0 0 -2.21 2.21 7.959 7.959 0 0 0 -.74 1.38 8.583 8.583 0 0 0 -.46 1.5 8.187 8.187 0 0 0 0 3.12 8.583 8.583 0 0 0 .46 1.5 7.959 7.959 0 0 0 .74 1.38 7.817 7.817 0 0 0 .989 1.22 8.384 8.384 0 0 0 1.221.99 7.923 7.923 0 0 0 1.38.74 7.712 7.712 0 0 0 1.49.45 7.606 7.606 0 0 0 1.57.16 7.512 7.512 0 0 0 1.56-.16 8.071 8.071 0 0 0 1.5-.45 8.34 8.34 0 0 0 1.38-.74 7.865 7.865 0 0 0 2.939-3.59 7.162 7.162 0 0 0 .46-1.5 7.638 7.638 0 0 0 0-3.12 7.162 7.162 0 0 0 -.46-1.5z"/><path d="m336.63 235.06a7.959 7.959 0 0 0 .74 1.38 7.817 7.817 0 0 0 .989 1.22 8.384 8.384 0 0 0 1.221.99 7.923 7.923 0 0 0 1.38.74 7.712 7.712 0 0 0 1.49.45 7.606 7.606 0 0 0 1.57.16 8.088 8.088 0 0 0 5.65-2.34 7.834 7.834 0 0 0 1.729-2.6 7.738 7.738 0 0 0 .46-1.5 7.921 7.921 0 0 0 -2.189-7.22 7.3 7.3 0 0 0 -1.21-.99 8.34 8.34 0 0 0 -1.38-.74 8.071 8.071 0 0 0 -1.5-.45 7.854 7.854 0 0 0 -3.13 0 7.712 7.712 0 0 0 -1.49.45 7.923 7.923 0 0 0 -1.38.74 7.774 7.774 0 0 0 -1.221.99 8.05 8.05 0 0 0 -2.189 7.22 8.583 8.583 0 0 0 .46 1.5z"/><path d="m368.63 235.06a7.959 7.959 0 0 0 .74 1.38 7.817 7.817 0 0 0 .989 1.22 8.384 8.384 0 0 0 1.221.99 7.611 7.611 0 0 0 1.38.74 8.482 8.482 0 0 0 1.49.45 8.363 8.363 0 0 0 1.57.16 8.259 8.259 0 0 0 1.56-.16 8.908 8.908 0 0 0 1.5-.45 8.34 8.34 0 0 0 1.38-.74 7.838 7.838 0 0 0 1.21-.99 7.991 7.991 0 0 0 0-11.32 7.3 7.3 0 0 0 -1.21-.99 8.34 8.34 0 0 0 -1.38-.74 8.071 8.071 0 0 0 -1.5-.45 7.854 7.854 0 0 0 -3.13 0 7.712 7.712 0 0 0 -1.49.45 7.611 7.611 0 0 0 -1.38.74 7.557 7.557 0 0 0 -2.21 2.21 7.959 7.959 0 0 0 -.74 1.38 7.779 7.779 0 0 0 -.45 1.5 7.685 7.685 0 0 0 0 3.12 7.779 7.779 0 0 0 .45 1.5z"/><path d="m368.63 267.06a7.959 7.959 0 0 0 .74 1.38 7.817 7.817 0 0 0 .989 1.22 8.384 8.384 0 0 0 1.221.99 7.611 7.611 0 0 0 1.38.74 7.712 7.712 0 0 0 1.49.45 7.606 7.606 0 0 0 1.57.16 7.512 7.512 0 0 0 1.56-.16 8.071 8.071 0 0 0 1.5-.45 8.34 8.34 0 0 0 1.38-.74 7.865 7.865 0 0 0 2.939-3.59 7.162 7.162 0 0 0 .46-1.5 7.378 7.378 0 0 0 .161-1.56 8.078 8.078 0 0 0 -2.35-5.66 7.3 7.3 0 0 0 -1.21-.99 8.34 8.34 0 0 0 -1.38-.74 8.945 8.945 0 0 0 -1.5-.46 8.083 8.083 0 0 0 -7.221 2.19 7.817 7.817 0 0 0 -.989 1.22 7.959 7.959 0 0 0 -.74 1.38 7.779 7.779 0 0 0 -.45 1.5 7.685 7.685 0 0 0 0 3.12 7.779 7.779 0 0 0 .45 1.5z"/><path d="m339.58 270.65a7.923 7.923 0 0 0 1.38.74 7.712 7.712 0 0 0 1.49.45 7.606 7.606 0 0 0 1.57.16 7.966 7.966 0 0 0 7.839-9.56 7.738 7.738 0 0 0 -.46-1.5 7.834 7.834 0 0 0 -1.729-2.6 7.3 7.3 0 0 0 -1.21-.99 8.34 8.34 0 0 0 -1.38-.74 8.071 8.071 0 0 0 -1.5-.45 7.854 7.854 0 0 0 -3.13 0 7.712 7.712 0 0 0 -1.49.45 7.923 7.923 0 0 0 -1.38.74 7.557 7.557 0 0 0 -2.21 2.21 7.959 7.959 0 0 0 -.74 1.38 8.583 8.583 0 0 0 -.46 1.5 8.05 8.05 0 0 0 2.189 7.22 7.774 7.774 0 0 0 1.221.99z"/><path d="m472.02 48a7.945 7.945 0 0 0 5.65-2.34l32.01-32.01a8 8 0 0 0 -11.321-11.31l-32 32a8 8 0 0 0 5.661 13.66z"/><path d="m424.02 48a7.913 7.913 0 0 0 5.65-2.35l32-31.99a8 8 0 0 0 -11.311-11.32l-32 32a8 8 0 0 0 0 11.31 7.921 7.921 0 0 0 5.661 2.35z"/><path d="m504.02 48a7.953 7.953 0 0 0 -5.661 2.34l-32 32a8 8 0 0 0 11.311 11.32l32.01-32a8 8 0 0 0 -5.66-13.66z"/><path d="m40.02 464a7.953 7.953 0 0 0 -5.661 2.34l-32 32a8 8 0 0 0 11.311 11.32l32-32a8 8 0 0 0 -5.65-13.66z"/><path d="m88.02 464a7.953 7.953 0 0 0 -5.661 2.34l-32 32a8 8 0 1 0 11.311 11.31l32-31.99a8 8 0 0 0 -5.65-13.66z"/><path d="m8.02 464a7.945 7.945 0 0 0 5.65-2.34l32-32a8 8 0 0 0 -11.311-11.32l-32 32a8 8 0 0 0 5.661 13.66z"/></svg>