<svg id="Capa_1" enable-background="new 0 0 512 512" height="512" viewBox="0 0 512 512" width="512" xmlns="http://www.w3.org/2000/svg"><g><g id="COLORS_34_"><path d="m170.662 445.776c28.443 0 28.443-20 56.885-20 28.443 0 28.443 20 56.886 20 28.445 0 28.445-20 56.889-20 14.432 0 21.527 5.128 28.716 10.191l50.493-94.468c14.122-26.42 16.857-57.456 7.574-85.939l-16.795-51.531 27.906-50.27 8.38 4.479 22.146-41.433-80.255-42.896-22.146 41.433 8.38 4.479-27.906 50.27-52.177 14.666c-28.839 8.106-53.125 27.624-67.247 54.044l-100.974 188.911c15.845 5.016 20.267 18.064 43.245 18.064z" fill="#b6e6fa"/><path d="m388.958 203.421 16.795 51.531c9.283 28.483 6.547 59.519-7.574 85.939l-45.998 86.058c7.677 1.801 12.75 5.422 17.857 9.019l50.493-94.468c14.122-26.42 16.857-57.456 7.574-85.939l-16.795-51.531 27.906-50.27 8.38 4.479 22.146-41.433-17.638-9.428-12.718 23.794-62.616-33.468-9.428 17.639 54.237 28.99z" fill="#94b7f7"/><path d="m459.599 111.384-59.968-32.053 25.743-52.404 63.495 33.938z" fill="#ffb655"/><path d="m470.626 51.114-19.237 33.204-42.934-22.949-8.824 17.962 59.968 32.053 29.271-50.519z" fill="#ff7956"/><path d="m227.548 425.776c28.443 0 28.443 20 56.886 20 25.468 0 28.148-16.022 48.843-19.378l26.373-49.341-31.75-16.97 20.506-38.364c.077-.144.144-.291.219-.436l.017-.005c11.455-21.431 3.368-48.091-18.063-59.546s-48.091-3.368-59.546 18.064c-.04.074-.073.149-.112.223-.04.074-.084.143-.124.218l-87.621 163.931c16.771-4.74 20.861-18.396 44.372-18.396z" fill="#71e4bf"/><path d="m289.095 339.346c-21.431-11.455-29.519-38.115-18.064-59.546s38.115-29.519 59.546-18.064 29.519 38.115 18.064 59.546l-20.741 38.805z" fill="#0ea8b2"/></g><g id="LINES_33_"><path d="m440.835 296.238c.334-5.924.217-11.875-.349-17.781l-14.932 1.432c.494 5.149.596 10.337.304 15.502z"/><path d="m235.005 242.335c6.541-12.236 15.615-23.076 26.451-31.733 10.688-8.539 23.049-14.906 36.214-18.626 4.521-1.278 9.046-2.542 13.569-3.814 8.483-2.384 16.967-4.769 25.45-7.153 5.305-1.491 10.609-2.982 15.914-4.473.084-.024.168-.047.252-.071l25.841-46.55 50.266 26.867-25.795 46.464 17.808 54.639.001.002c.716 2.195 1.368 4.454 1.938 6.714l14.545-3.668c-.653-2.588-1.4-5.178-2.222-7.696l-15.782-48.424 22.738-40.959 8.483 4.534 29.218-54.661-9.913-5.299 29.27-50.519-77.186-41.256-25.742 52.405-9.913-5.298-29.217 54.661 8.273 4.423-22.69 40.873c-5.457 1.534-10.915 3.068-16.372 4.602-8.767 2.464-17.533 4.928-26.3 7.393-8.149 2.291-16.195 4.69-23.908 8.263-13.549 6.276-25.874 15.145-36.146 25.981-7.422 7.829-13.64 16.641-18.721 26.147-2.252 4.214-4.505 8.428-6.757 12.641-4.044 7.565-8.087 15.13-12.131 22.695-4.598 8.603-9.197 17.206-13.795 25.81-3.97 7.427-7.94 14.854-11.91 22.282-2.105 3.939-4.211 7.878-6.316 11.817-.096.18-.192.36-.288.54l13.229 7.072zm193.679-205.135 49.805 26.621-21.745 37.531-47.185-25.22zm-36.117 46.859 66.497 35.543s.353.188.529.283l-15.075 28.204-67.026-35.826z"/><path d="m158.64 347.765h15v15h-15z" transform="matrix(.472 -.882 .882 .472 -225.492 334.283)"/><g fill="#fff"><path d="m326.668 197.589h15v15.001h-15z" transform="matrix(.963 -.271 .271 .963 -43.027 98.067)"/><path d="m301.729 206.417c-2.064.58-4.137 1.247-6.16 1.982l5.127 14.098c4.515-1.643 9.219-2.8 13.842-4.1l-4.059-14.439z"/><path d="m267.535 225.063 9.92 11.252c3.397-2.995 7.093-5.687 10.98-7.999l-7.666-12.893c-4.686 2.787-9.138 6.031-13.234 9.64z"/></g><path d="m398.21 480.276c-6.364 0-12.435-1.302-17.952-4.53-4.485-2.624-8.506-5.961-12.968-8.627-11.436-6.831-25.614-8.507-38.535-5.489-5.523 1.29-10.64 3.67-15.393 6.735-4.403 2.84-8.484 6.235-13.193 8.576-6.041 3.003-12.903 3.719-19.567 3.189-6.072-.483-11.479-2.569-16.538-5.901-4.294-2.828-8.342-6.005-12.894-8.428-5.48-2.917-11.463-4.641-17.637-5.243-7.267-.709-14.816-.233-21.807 1.96-5.136 1.611-9.806 4.218-14.233 7.242-4.42 3.018-8.676 6.39-13.714 8.338-6.376 2.466-13.802 2.763-20.49 1.586-5.805-1.021-10.714-3.82-15.486-7.151-4.188-2.923-8.344-5.887-13.009-8.019-6.029-2.756-12.576-4.027-19.183-4.213-6.971-.195-14.012.678-20.533 3.227-4.823 1.885-9.154 4.669-13.374 7.629-4.561 3.2-9.112 6.389-14.557 7.881-3.337.914-6.808 1.237-10.26 1.237v15c7.814 0 15.548-1.458 22.562-4.977 5.419-2.719 10.075-6.576 15.194-9.773 2.77-1.73 5.714-3.148 8.871-4.013 4.022-1.102 8.254-1.368 12.407-1.193 3.827.161 7.634.81 11.205 2.226 2.985 1.184 5.719 2.871 8.36 4.679 5.019 3.437 9.878 7.054 15.531 9.414 7.533 3.146 15.844 4.045 23.945 3.493 7.292-.496 14.3-2.497 20.655-6.118 5.3-3.02 9.941-7.087 15.326-9.956 6.875-3.664 14.996-4.447 22.642-3.399 3.498.48 6.878 1.51 10.024 3.117 2.876 1.469 5.517 3.342 8.153 5.195 5.003 3.517 10.114 6.803 15.95 8.77 7.932 2.674 16.706 3.146 24.963 1.984 6.847-.963 13.224-3.443 19.059-7.119 5.204-3.278 9.94-7.417 15.652-9.822 7.141-3.007 15.847-3.31 23.331-1.498 6.348 1.537 11.449 5.362 16.719 9.015 5.228 3.624 10.744 6.68 16.934 8.309 8.17 2.151 17.158 2.273 25.416.534 6.461-1.361 12.319-4.201 17.772-7.867 5.174-3.479 10.069-7.494 16.098-9.415 3.694-1.177 7.584-1.586 11.449-1.586v-15c-8.74 0-17.24 1.877-24.869 6.204-6 3.404-11.184 8.225-17.514 11.043-4.57 2.035-9.538 2.754-14.512 2.754z"/><path d="m487.865 429.641c-5.412-3.805-10.944-7.306-17.329-9.243-8.603-2.61-18.23-2.838-27.008-.989-6.876 1.448-13.004 4.584-18.756 8.537-5.68 3.904-11.096 8.029-17.983 9.506-9.057 1.942-18.941.843-26.93-3.948 1.843-3.448 3.686-6.896 5.529-10.345 4.308-8.06 8.616-16.12 12.925-24.18 4.927-9.218 9.854-18.436 14.781-27.654 3.742-7.001 7.484-14.001 11.226-21.002 3.753-7.022 7.353-14.064 10.012-21.603.823-2.334 1.573-4.694 2.247-7.075.724-2.557 1.37-5.173 1.918-7.777l-14.678-3.092c-1.996 9.477-5.351 18.643-9.902 27.19-.525.986-1.054 1.971-1.58 2.957-3.352 6.27-33.622 62.902-38.118 71.314-2.265 4.238-4.531 8.476-6.796 12.715-.033.062-.066.124-.1.187-6.522-3.898-13.725-6.118-21.295-6.686l23.773-44.475-77.169-41.246c-11.183-5.977-18.555-17.642-19.233-30.296-.723-13.513 6.361-26.51 18.147-33.189 13.695-7.76 31.249-5.751 42.831 4.911 11.406 10.499 14.887 27.673 8.512 41.802-1.38 3.059-3.106 5.987-4.686 8.944-1.832 3.427-3.663 6.854-5.495 10.28-.112.209-.224.419-.336.628l13.229 7.07c2.782-5.206 5.565-10.412 8.347-15.618.436-.816.868-1.633 1.297-2.452l.011.006c8.004-14.976 8.005-33.32.097-48.335-8.925-16.946-27.152-27.79-46.335-27.458-10.096.175-20.112 3.375-28.432 9.099-6.937 4.772-12.462 11.2-16.418 18.609-1.605 3.005-3.212 6.009-4.818 9.014-3.918 7.33-7.835 14.659-11.753 21.989-5.337 9.986-10.675 19.972-16.012 29.957-5.835 10.917-11.67 21.833-17.505 32.75-5.508 10.304-11.015 20.609-16.523 30.913-4.259 7.967-8.517 15.935-12.776 23.902-2.114 3.956-4.229 7.911-6.343 11.867-.095.178-.19.355-.285.533-6.022 1.085-12.643.942-18.524-.84-4.548-1.378-8.495-3.947-12.353-6.651-3.062-2.147-6.12-4.303-9.407-6.098l24.279-45.421-13.229-7.072-25.393 47.506c-9.802-1.685-20.419-.976-29.63 2.932-6.922 2.937-12.504 7.866-18.92 11.648-8.01 4.723-17.995 5.756-27.012 3.714-7.621-1.726-13.426-6.74-19.819-10.887-3.582-2.324-7.371-4.309-11.425-5.675-5.378-1.813-11.06-2.534-16.721-2.534v15c7.04 0 13.489 1.675 19.442 5.446 4.791 3.035 9.195 6.624 14.244 9.25 6.191 3.22 12.986 4.871 19.941 5.223 7.688.389 15.515-.517 22.67-3.458 5.222-2.146 9.81-5.353 14.41-8.572 5.244-3.669 10.593-6.624 17.028-7.506 7.666-1.051 15.765-.246 22.659 3.42 5.621 2.989 10.439 7.268 16.022 10.337 6.008 3.302 12.605 5.156 19.434 5.68 7.743.595 15.726-.132 23.025-2.887 5.281-1.993 9.954-5.07 14.546-8.298 2.652-1.865 5.312-3.745 8.214-5.21 3.087-1.558 6.399-2.56 9.823-3.034 7.307-1.012 15.157-.372 21.826 2.944 5.11 2.54 9.49 6.302 14.328 9.294 12.274 7.592 27.871 9.425 41.725 5.407 5.666-1.643 10.765-4.495 15.599-7.824 4.917-3.386 9.678-7.057 15.483-8.79 3.656-1.091 7.492-1.45 11.296-1.421 4.004.031 8.01.527 11.805 1.839 5.602 1.937 10.336 5.667 15.132 9.047 1.334.94 2.669 1.88 4.003 2.821l.128-.239c9.377 5.469 20.17 7.249 30.922 6.295 5.157-.457 10.232-1.658 14.975-3.749 3.75-1.653 7.212-3.838 10.57-6.172 3.528-2.452 6.984-5.071 10.899-6.888 4.749-2.204 9.938-2.973 15.142-2.955 5.256.018 10.463.872 15.222 3.172 3.865 1.867 7.291 4.488 10.808 6.917 3.421 2.363 6.965 4.549 10.801 6.176 4.784 2.029 9.892 3.156 15.066 3.554 1.601.123 3.207.18 4.813.18v-15c-11.852-.003-17.272-3.813-24.135-8.638zm-179.301.001c-2.774 1.95-5.56 3.917-8.616 5.408-3.368 1.643-6.994 2.605-10.717 2.992-7.951.826-15.949-.292-22.887-4.383-5.411-3.191-10.201-7.306-15.808-10.188-7.186-3.694-15.134-5.216-23.179-5.194-8.971.025-17.618 2.068-25.377 6.62l58.557-109.554c3.807 12.678 12.453 23.899 25.022 30.617l63.939 34.176-21.169 39.606c-8.67 2.113-14.47 6.176-19.765 9.9z"/></g></g></svg>