<?xml version="1.0" encoding="iso-8859-1"?>
<!-- Generator: Adobe Illustrator 19.0.0, SVG Export Plug-In . SVG Version: 6.00 Build 0)  -->
<svg version="1.1" id="Capa_1" xmlns="http://www.w3.org/2000/svg" xmlns:xlink="http://www.w3.org/1999/xlink" x="0px" y="0px"
	 viewBox="0 0 512 512" style="enable-background:new 0 0 512 512;" xml:space="preserve">
<g>
	<g>
		<path d="M437.02,74.98C388.667,26.629,324.38,0,256,0S123.333,26.629,74.98,74.98C26.629,123.333,0,187.62,0,256
			s26.629,132.667,74.98,181.02C123.333,485.371,187.62,512,256,512s132.667-26.629,181.02-74.98
			C485.371,388.667,512,324.38,512,256S485.371,123.333,437.02,74.98z M256,482C131.383,482,30,380.617,30,256S131.383,30,256,30
			s226,101.383,226,226S380.617,482,256,482z"/>
	</g>
</g>
<g>
	<g>
		<path d="M256,106c-82.71,0-150,67.29-150,150s67.29,150,150,150s150-67.29,150-150S338.71,106,256,106z M375.065,241h-30.322
			c-2.301-13.655-7.682-26.278-15.41-37.12l21.423-21.423C363.668,199.056,372.324,219.12,375.065,241z M271,136.936
			c21.879,2.74,41.944,11.396,58.543,24.309l-21.423,21.422c-10.842-7.728-23.465-13.109-37.12-15.41V136.936z M241,136.936v30.321
			c-13.655,2.301-26.278,7.682-37.12,15.41l-21.423-21.422C199.056,148.333,219.12,139.677,241,136.936z M161.244,182.458
			l21.423,21.422c-7.728,10.842-13.109,23.465-15.41,37.12h-30.321C139.676,219.121,148.332,199.057,161.244,182.458z M136.936,271
			h30.321c2.301,13.655,7.682,26.278,15.41,37.12l-21.423,21.422C148.332,312.943,139.676,292.879,136.936,271z M241,375.064
			c-21.88-2.74-41.944-11.396-58.543-24.309l21.423-21.422c10.842,7.728,23.465,13.109,37.12,15.41V375.064z M196,256
			c0-33.084,26.916-60,60-60s60,26.916,60,60s-26.916,60-60,60C222.916,316,196,289.084,196,256z M271,375.065v-30.322
			c13.655-2.301,26.278-7.682,37.12-15.41l21.423,21.423C312.944,363.668,292.88,372.324,271,375.065z M350.755,329.543
			l-21.422-21.423c7.728-10.842,13.109-23.465,15.41-37.12h30.321C372.324,292.879,363.668,312.944,350.755,329.543z"/>
	</g>
</g>
<g>
</g>
<g>
</g>
<g>
</g>
<g>
</g>
<g>
</g>
<g>
</g>
<g>
</g>
<g>
</g>
<g>
</g>
<g>
</g>
<g>
</g>
<g>
</g>
<g>
</g>
<g>
</g>
<g>
</g>
</svg>
