<?xml version="1.0" encoding="iso-8859-1"?>
<!-- Generator: Adobe Illustrator 19.0.0, SVG Export Plug-In . SVG Version: 6.00 Build 0)  -->
<svg version="1.1" id="Layer_1" xmlns="http://www.w3.org/2000/svg" xmlns:xlink="http://www.w3.org/1999/xlink" x="0px" y="0px"
	 viewBox="0 0 512 512" style="enable-background:new 0 0 512 512;" xml:space="preserve">
<path style="fill:#495A79;" d="M256,211c-8.291,0-15-6.709-15-15v-60c0-8.291,6.709-15,15-15c8.291,0,15,6.709,15,15v60
	C271,204.291,264.291,211,256,211z"/>
<path style="fill:#42516D;" d="M271,196v-60c0-8.291-6.709-15-15-15v90C264.291,211,271,204.291,271,196z"/>
<path style="fill:#495A79;" d="M256,391c-8.291,0-15-6.709-15-15v-60c0-8.291,6.709-15,15-15c8.291,0,15,6.709,15,15v60
	C271,384.291,264.291,391,256,391z"/>
<path style="fill:#42516D;" d="M271,376v-60c0-8.291-6.709-15-15-15v90C264.291,391,271,384.291,271,376z"/>
<path style="fill:#495A79;" d="M196,271h-60c-8.291,0-15-6.709-15-15s6.709-15,15-15h60c8.291,0,15,6.709,15,15
	C211,264.291,204.291,271,196,271z"/>
<path style="fill:#42516D;" d="M376,271h-60c-8.291,0-15-6.709-15-15s6.709-15,15-15h60c8.291,0,15,6.709,15,15
	C391,264.291,384.291,271,376,271z"/>
<path style="fill:#495A79;" d="M202.967,224.18l-42.426-42.426c-5.863-5.863-5.863-15.351,0-21.213
	c5.863-5.863,15.351-5.863,21.213,0l42.426,42.426c5.863,5.863,5.863,15.351,0,21.213
	C218.318,230.043,208.83,230.043,202.967,224.18z"/>
<path style="fill:#42516D;" d="M330.246,351.459l-42.426-42.426c-5.863-5.863-5.863-15.351,0-21.213
	c5.863-5.863,15.351-5.863,21.213,0l42.426,42.426c5.863,5.863,5.863,15.351,0,21.213S336.109,357.322,330.246,351.459z"/>
<path style="fill:#495A79;" d="M224.18,309.033l-42.426,42.426c-5.863,5.863-15.351,5.863-21.213,0
	c-5.863-5.863-5.863-15.351,0-21.213l42.426-42.426c5.863-5.863,15.351-5.863,21.213,0
	C230.043,293.682,230.043,303.17,224.18,309.033z"/>
<path style="fill:#42516D;" d="M351.459,181.754l-42.426,42.426c-5.863,5.863-15.351,5.863-21.213,0
	c-5.863-5.863-5.863-15.351,0-21.213l42.426-42.426c5.863-5.863,15.351-5.863,21.213,0
	C357.322,166.403,357.322,175.891,351.459,181.754z"/>
<path style="fill:#495A79;" d="M256,181c-41.353,0-75,33.647-75,75s33.647,75,75,75s75-33.647,75-75S297.353,181,256,181z M256,301
	c-24.814,0-45-20.186-45-45s20.186-45,45-45s45,20.186,45,45S280.814,301,256,301z"/>
<path style="fill:#42516D;" d="M256,181v30c24.814,0,45,20.186,45,45s-20.186,45-45,45v30c41.353,0,75-33.647,75-75
	S297.353,181,256,181z"/>
<path style="fill:#D94158;" d="M256,0C115.3,0,0,115.3,0,256s115.3,256,256,256s256-115.3,256-256S396.7,0,256,0z M256,376
	c-66.167,0-120-53.833-120-120s53.833-120,120-120s120,53.833,120,120S322.167,376,256,376z"/>
<path style="fill:#CC2944;" d="M376,256c0,66.167-53.833,120-120,120v136c140.7,0,256-115.3,256-256S396.7,0,256,0v136
	C322.167,136,376,189.833,376,256z"/>
<path style="fill:#495A79;" d="M256,121c-74.443,0-135,60.557-135,135s60.557,135,135,135s135-60.557,135-135S330.443,121,256,121z
	 M256,361c-57.891,0-105-47.109-105-105s47.109-105,105-105s105,47.109,105,105S313.891,361,256,361z"/>
<g>
</g>
<g>
</g>
<g>
</g>
<g>
</g>
<g>
</g>
<g>
</g>
<g>
</g>
<g>
</g>
<g>
</g>
<g>
</g>
<g>
</g>
<g>
</g>
<g>
</g>
<g>
</g>
<g>
</g>
</svg>
