<svg height="512" viewBox="0 0 64 64" width="512" xmlns="http://www.w3.org/2000/svg"><path d="m42.9 48a9.975 9.975 0 0 0 -6.9-8.18v21.18h7v-11.65a8.582 8.582 0 0 0 -.1-1.35z" fill="#ffb655"/><path d="m36 39.82v21.18h-26v-21.18c.01-.01.01-.01.02-.01l8.98-2.81a4 4 0 0 0 8 0l8.98 2.81c.01 0 .01 0 .02.01z" fill="#ee8700"/><path d="m29 3h-12a4 4 0 0 0 -4 4v6h20v-6a4 4 0 0 0 -4-4z" fill="#ff6243"/><circle cx="52" cy="55" fill="#cc7400" r="2"/><path d="m60.27 44.07a2.031 2.031 0 0 0 -1-.27 2 2 0 0 0 -1.73 1l-1.85 3.2h-29.38l-1.85-3.2a2 2 0 0 0 -3.73 1.01 1.967 1.967 0 0 0 .27.99l1.85 3.2a3.982 3.982 0 0 0 3.46 2h29.38a3.982 3.982 0 0 0 3.46-2l1.85-3.2a2.006 2.006 0 0 0 -.73-2.73z" fill="#787680"/><path d="m34 17a2 2 0 1 1 -1 3.73v-3.46a2 2 0 0 1 1-.27z" fill="#ffb655"/><path d="m33 20.73v2.27a10 10 0 0 1 -20 0v-6h20z" fill="#ffc477"/><path d="m33 13v4h-20v-4h6 8z" fill="#ff5023"/><circle cx="31" cy="55" fill="#cc7400" r="2"/><path d="m27 32.16v4.84a4 4 0 0 1 -8 0v-4.84a9.944 9.944 0 0 0 8 0z" fill="#ffc477"/><path d="m19 9h8v4h-8z" fill="#787680"/><path d="m13 17.27v3.46a2 2 0 1 1 0-3.46z" fill="#ffb655"/><path d="m10 39.82v21.18h-7v-11.65a9.981 9.981 0 0 1 7-9.53z" fill="#ffb655"/><path d="m41 13h-8v4h8a2 2 0 0 0 0-4z" fill="#ff6243"/><path d="m13 17h20v2h-20z" fill="#ffb655"/><path d="m27 32.16v2a9.944 9.944 0 0 1 -8 0v-2a9.944 9.944 0 0 0 8 0z" fill="#ffb655"/><path d="m17 19h2v2h-2z"/><path d="m27 19h2v2h-2z"/><path d="m27 25h-2a2 2 0 0 1 -4 0h-2a4 4 0 0 0 8 0z"/><path d="m60.768 43.206a3 3 0 0 0 -4.1 1.1l-1.555 2.694h-11.377a11 11 0 0 0 -7.457-8.145l-8.279-2.59v-3.479a11 11 0 0 0 6-9.786v-1a3 3 0 0 0 3-3 2.966 2.966 0 0 0 -.184-1h4.184a3 3 0 0 0 0-6h-7v-5a5.006 5.006 0 0 0 -5-5h-12a5.006 5.006 0 0 0 -5 5v9a3 3 0 0 0 0 6v1a11 11 0 0 0 6 9.786v3.479l-8.277 2.59a10.94 10.94 0 0 0 -7.723 10.495v11.65a1 1 0 0 0 1 1h40a1 1 0 0 0 1-1v-8h5.78a3 3 0 1 0 4.44 0h1.47a5.016 5.016 0 0 0 4.331-2.5l1.845-3.2a3 3 0 0 0 -1.098-4.094zm-8.768 12.794a1 1 0 1 1 1-1 1 1 0 0 1 -1 1zm-10.328-9h-4.672v-5.7a9 9 0 0 1 4.672 5.7zm-6.672-6.449v6.449h-8.113l-1.557-2.7a3 3 0 0 0 -5.2 3l1.845 3.2a5.016 5.016 0 0 0 4.335 2.5h2.47a3 3 0 1 0 4.44 0h1.78v7h-24v-19.448l7.193-2.252a4.973 4.973 0 0 0 9.614 0zm-3 14.449a1 1 0 1 1 -1-1 1 1 0 0 1 1 1zm-6-43h-6v-2h6zm6 2v2h-18v-2zm3 5a1 1 0 0 1 -1 1v-2a1 1 0 0 1 1 1zm6-5a1 1 0 0 1 0 2h-7v-2zm-24-10h12a3 3 0 0 1 3 3v5h-4v-3a1 1 0 0 0 -1-1h-8a1 1 0 0 0 -1 1v3h-4v-5a3 3 0 0 1 3-3zm-6 15a1 1 0 0 1 1-1v2a1 1 0 0 1 -1-1zm3 4v-5h18v5a9 9 0 0 1 -18 0zm9 11a10.966 10.966 0 0 0 3-.426v3.426a3 3 0 0 1 -6 0v-3.426a10.966 10.966 0 0 0 3 .426zm-19 15.35a8.94 8.94 0 0 1 5-8.058v18.708h-5zm38 10.65h-5v-7h5zm18.134-13.7-1.845 3.2a3.011 3.011 0 0 1 -2.6 1.5h-29.379a3.011 3.011 0 0 1 -2.6-1.5l-1.845-3.2a1 1 0 1 1 1.732-1l1.845 3.2a1 1 0 0 0 .867.5h29.381a1 1 0 0 0 .867-.5l1.843-3.2a1 1 0 0 1 1.732 1z"/></svg>