<svg height="512" viewBox="0 0 60 60" width="512" xmlns="http://www.w3.org/2000/svg"><g id="040---Group-Excursion" fill="none"><g id="Layer_3" transform="translate(1 1)"><path id="Shape" d="m12 46c-3.3137085 0-6 2.6862915-6 6s2.6862915 6 6 6 6-2.6862915 6-6-2.6862915-6-6-6zm0 8c-1.1045695 0-2-.8954305-2-2s.8954305-2 2-2 2 .8954305 2 2c-.0032948 1.1032019-.8967981 1.9967052-2 2z" fill="#37474f"/><circle id="Oval" cx="12" cy="52" fill="#cfd8dc" r="2"/><path id="Shape" d="m45 46c-3.3137085 0-6 2.6862915-6 6s2.6862915 6 6 6 6-2.6862915 6-6-2.6862915-6-6-6zm0 8c-1.1045695 0-2-.8954305-2-2s.8954305-2 2-2 2 .8954305 2 2c-.0032948 1.1032019-.8967981 1.9967052-2 2z" fill="#37474f"/><circle id="Oval" cx="45" cy="52" fill="#cfd8dc" r="2"/><path id="Shape" d="m58 31v19c-.0032948 1.1032019-.8967981 1.9967052-2 2h-5c0-3.3137085-2.6862915-6-6-6s-6 2.6862915-6 6h-21c0-3.3137085-2.6862915-6-6-6s-6 2.6862915-6 6h-1c-1.32608245 0-2.59785201-.5267842-3.53553391-1.4644661-.93768189-.9376819-1.46446609-2.2094515-1.46446609-3.5355339v-18c0-2.7614237 2.23857625-5 5-5h5.67c2.2550653 8.2652349 9.7626535 13.9988901 18.33 13.9988901s16.0749347-5.7336552 18.33-13.9988901h3.67c1.8565154 0 3.6369928.7374979 4.9497475 2.0502525 1.3127546 1.3127547 2.0502525 3.0932321 2.0502525 4.9497475z" fill="#f44335"/><g fill="#009688"><path id="Shape" d="m14 30.65v7.35h-5c-2.209139 0-4-1.790861-4-4v-5c0-.5522847.44771525-1 1-1h6.27c.4929225.9352577 1.0721035 1.8224424 1.73 2.65z"/><path id="Shape" d="m29 38.0000199h-15v-7.3400199c3.5933821 4.6377349 9.1330666 7.3484872 15 7.3400199z"/><path id="Shape" d="m50 28h-4c-.0987092.001153-.1966038.0180314-.29.05h-.01c-.2101935.4098317-.4439172.807162-.7 1.19v8.76c0 1.6568542 1.3431458 3 3 3h4c.5522847 0 1-.4477153 1-1v-9c0-1.6568542-1.3431458-3-3-3z"/></g><path id="Shape" d="m50 28h-3c1.6568542 0 3 1.3431458 3 3v9c0 .5522847-.4477153 1-1 1h3c.5522847 0 1-.4477153 1-1v-9c0-1.6568542-1.3431458-3-3-3z" fill="#00695c"/><path id="Shape" d="m55 44h3v4h-3c-.5522847 0-1-.4477153-1-1v-2c0-.5522847.4477153-1 1-1z" fill="#ffeb3a"/><path id="Shape" d="m48 19c.0023815 1.689203-.2229815 3.3710166-.67 5-.3786313 1.4090836-.9223995 2.7685041-1.62 4.05h-.01c-.2101935.4098317-.4439172.807162-.7 1.19v.01c-3.3282528 5.1949259-8.9716864 8.4503813-15.1349596 8.7307108s-12.078935-2.4493735-15.8650404-7.3207108v-.01c-.6578965-.8275576-1.2370775-1.7147423-1.73-2.65-.6883919-1.2659552-1.2254181-2.6085208-1.6-4-.4470185-1.6289834-.67238151-3.310797-.67-5 0-10.49341025 8.5065898-19 19-19s19 8.50658975 19 19z" fill="#02a9f4"/><circle id="Oval" cx="29" cy="13" fill="#ffe0b2" r="2"/><path id="Shape" d="m34 24.33v1.78c.0163018.4748651-.3551532.8731723-.83.89h-8.34c-.4748468-.0168277-.8463018-.4151349-.83-.89v-1.78c-.0100149-1.4862577.5857511-2.9124854 1.65-3.95 1.8543206-1.8400671 4.8456794-1.8400671 6.7 0 1.0642489 1.0375146 1.6600149 2.4637423 1.65 3.95z" fill="#3f51b5"/><path id="Shape" d="m32.35 20.38c-.8935182-.8799571-2.0959358-1.3752814-3.35-1.38-.5112756.0059613-1.0180709.0961708-1.5.267.6916343.229086 1.3235892.6092837 1.85 1.113 1.0642489 1.0375146 1.6600149 2.4637423 1.65 3.95v1.78c.0163018.4748651-.3551532.8731723-.83.89h3c.4748468-.0168277.8463018-.4151349.83-.89v-1.78c.0100149-1.4862577-.5857511-2.9124854-1.65-3.95z" fill="#283593"/><circle id="Oval" cx="21" cy="11" fill="#ffe0b2" r="2"/><path id="Shape" d="m25.65 20.38c-1.0642489 1.0375146-1.6600149 2.4637423-1.65 3.95v.67h-7.17c-.4748468-.0168277-.8463018-.4151349-.83-.89v-1.78c-.0864627-2.8507889 2.1495053-5.2343307 5-5.33 1.3447509.0090457 2.6259325.5736342 3.54 1.56.4899851.5248183.8676939 1.1441247 1.11 1.82z" fill="#3f51b5"/><path id="Shape" d="m24.54 18.56c-.9140675-.9863658-2.1952491-1.5509543-3.54-1.56-.5115409.0077131-1.0183206.0996091-1.5.272.7749391.2563824 1.4753267.698588 2.04 1.288.4899851.5248183.8676939 1.1441247 1.11 1.82-1.0642489 1.0375146-1.6600149 2.4637423-1.65 3.95v.67h3v-.67c-.0100149-1.4862577.5857511-2.9124854 1.65-3.95-.2423061-.6758753-.6200149-1.2951817-1.11-1.82z" fill="#283593"/><circle id="Oval" cx="37" cy="11" fill="#ffe0b2" r="2"/><path id="Shape" d="m42 22.33v1.78c.0163018.4748651-.3551532.8731723-.83.89h-7.17v-.67c.0100149-1.4862577-.5857511-2.9124854-1.65-3.95.2423061-.6758753.6200149-1.2951817 1.11-1.82.9140675-.9863658 2.1952491-1.5509543 3.54-1.56 2.8504947.0956693 5.0864627 2.4792111 5 5.33z" fill="#3f51b5"/><path id="Shape" d="m37 17c-.5115321.0078039-1.0182971.0996972-1.5.272 2.1280842.7642883 3.5347346 2.7970992 3.5 5.058v1.78c.0163018.4748651-.3551532.8731723-.83.89h3c.4748468-.0168277.8463018-.4151349.83-.89v-1.78c.0864627-2.8507889-2.1495053-5.2343307-5-5.33z" fill="#283593"/><path id="Shape" d="m45 29.25v8.7500012h-16c6.4764261.0023436 12.5075522-3.2959285 16-8.7500012z" fill="#009688"/></g><g id="Layer_12" fill="#000"><path id="Shape" d="m13 50c-1.6568542 0-3 1.3431458-3 3s1.3431458 3 3 3 3-1.3431458 3-3-1.3431458-3-3-3zm0 4c-.5522847 0-1-.4477153-1-1s.4477153-1 1-1 1 .4477153 1 1-.4477153 1-1 1z"/><path id="Shape" d="m46 50c-1.6568542 0-3 1.3431458-3 3s1.3431458 3 3 3 3-1.3431458 3-3-1.3431458-3-3-3zm0 4c-.5522847 0-1-.4477153-1-1s.4477153-1 1-1 1 .4477153 1 1-.4477153 1-1 1z"/><path id="Shape" d="m52 24h-2.4c1.6135893-7.9464193-1.7304574-16.08072231-8.4665141-20.59456656s-15.5309151-4.51384425-22.2669718 0-10.08010336 12.64814726-8.4665141 20.59456656h-4.4c-3.31233757.0033074-5.99669262 2.6876624-6 6v18c-.0001427 1.6052573.64296824 3.1436309 1.78554866 4.2711774 1.14258043 1.1275464 2.68933672 1.750226 4.29445134 1.7288226.49429504 3.441787 3.44289982 5.9971786 6.92 5.9971786 3.4771002 0 6.425705-2.5553916 6.92-5.9971786h19.16c.494295 3.441787 3.4428998 5.9971786 6.92 5.9971786s6.425705-2.5553916 6.92-5.9971786h4.08c1.6568542 0 3-1.3431458 3-3v-19c-.0049599-4.4162219-3.5837781-7.9950401-8-8zm-13.34 14c2.4134958-1.1658006 4.5691856-2.8029688 6.34-4.815v4.815zm8.34-7.517c.1-.16.2-.32.294-.483h3.706c1.1045695 0 2 .8954305 2 2v9h-4c-1.1045695 0-2-.8954305-2-2zm-17-28.483c9.9411255 0 18 8.0588745 18 18s-8.0588745 18-18 18-18-8.0588745-18-18c.0110223-9.9365563 8.0634437-17.98897774 18-18zm-20 36c-1.65685425 0-3-1.3431458-3-3v-5h5.706c.3930759.6742709.8251429 1.3250425 1.294 1.949v6.051zm6-3.741c1.5641834 1.52974 3.3679826 2.7934128 5.34 3.741h-5.34zm-3 23.741c-2.7614237 0-5-2.2385763-5-5s2.2385763-5 5-5 5 2.2385763 5 5c-.0033061 2.7600532-2.2399468 4.9966939-5 5zm33 0c-2.7614237 0-5-2.2385763-5-5s2.2385763-5 5-5 5 2.2385763 5 5c-.0033061 2.7600532-2.2399468 4.9966939-5 5zm12-10h-2v-2h2zm0-4h-2c-1.1045695 0-2 .8954305-2 2v2c0 1.1045695.8954305 2 2 2h2v1c0 .5522847-.4477153 1-1 1h-4.08c-.494295-3.441787-3.4428998-5.9971786-6.92-5.9971786s-6.425705 2.5553916-6.92 5.9971786h-19.16c-.494295-3.441787-3.4428998-5.9971786-6.92-5.9971786-3.47710018 0-6.42570496 2.5553916-6.92 5.9971786-1.07465847.0214975-2.11274777-.3904204-2.88028572-1.1429086-.76753795-.7524881-1.19992928-1.782218-1.19971428-2.8570914v-18c0-2.209139 1.790861-4 4-4h4.922c.2170844.6798831.4707884 1.3475252.76 2h-4.682c-1.1045695 0-2 .8954305-2 2v5c.00330612 2.7600532 2.23994685 4.9966939 5 5h35.142c.4545933 1.7606851 2.0395884 2.9931852 3.858 3h4c1.1045695 0 2-.8954305 2-2v-9c0-2.209139-1.790861-4-4-4h-2.682c.2892116-.6524748.5429156-1.3201169.76-2h2.922c3.3123376.0033074 5.9966926 2.6876624 6 6z"/><path id="Shape" d="m42 42h-37c-.55228475 0-1 .4477153-1 1s.44771525 1 1 1h37c.5522847 0 1-.4477153 1-1s-.4477153-1-1-1z"/><path id="Shape" d="m30 17c1.6568542 0 3-1.3431458 3-3s-1.3431458-3-3-3-3 1.3431458-3 3 1.3431458 3 3 3zm0-4c.5522847 0 1 .4477153 1 1s-.4477153 1-1 1-1-.4477153-1-1 .4477153-1 1-1z"/><path id="Shape" d="m22 15c1.6568542 0 3-1.3431458 3-3s-1.3431458-3-3-3-3 1.3431458-3 3 1.3431458 3 3 3zm0-4c.5522847 0 1 .4477153 1 1s-.4477153 1-1 1-1-.4477153-1-1 .4477153-1 1-1z"/><path id="Shape" d="m24 27.111c-.0144715 1.0274079.8056217 1.8725559 1.833 1.889h8.334c1.0273783-.0164441 1.8474715-.8615921 1.833-1.889 0-.161-.678-.111 6.17-.111 1.0265954-.0180771 1.8450396-.8633556 1.83-1.89v-1.78c0-6.248-7.771-8.715-11.012-3.481-1.8311431-1.1321254-4.1448569-1.1321254-5.976 0-3.242-5.237-11.012-2.766-11.012 3.481v1.78c-.0150396 1.0266444.8034046 1.8719229 1.83 1.89 6.856 0 6.17-.05 6.17.111zm18-3.781v1.67h-6.016c-.0624796-1.3888635-.5693705-2.720942-1.446-3.8 2.008-3.876 7.462-2.288 7.462 2.13zm-8 2v1.67h-8v-1.667c-.0857185-2.2987935 1.7016968-4.2350112 4-4.333 2.2983032.0979888 4.0857185 2.0342065 4 4.333zm-16-2c0-4.358 5.433-6.048 7.462-2.127-.8760308 1.0782437-1.3828856 2.4091757-1.446 3.797h-6.016z"/><path id="Shape" d="m38 15c1.6568542 0 3-1.3431458 3-3s-1.3431458-3-3-3-3 1.3431458-3 3 1.3431458 3 3 3zm0-4c.5522847 0 1 .4477153 1 1s-.4477153 1-1 1-1-.4477153-1-1 .4477153-1 1-1z"/></g></g></svg>