<svg height="512" viewBox="0 0 512 512" width="512" xmlns="http://www.w3.org/2000/svg"><g><path d="m454.656 283.562c-3.328-4.25-16.779-27.319-19.7-27l-50.529-21.053a112.286 112.286 0 0 0 29.942-31.209q2.1-1.224 4.145-2.556c1.09.339 3.455 1.02 5.033 1.576 7.561 4.746 12.64-4.082 14.314-8.939 73.132-128.324-98-229.279-197.416-150.642-55.223-7.364-50.5-6.5-44.989 24.174 5.916 25.566 1.422 39.987 19.056 38.376-13.856 38.166-4.863 80.83 19.771 109.712-3.111-.69-43.832 8.438-70.179 13.42-17.369 2.121-20.345 6.651-40.342 19.792-9.119 3.99 2.945 24.871 4.238 32.087.092 2.794-.172 28.564.084 31.74-9.09-1.79-28.941-1.386-38.525-.389-43.017 12.179-26.619 67.267 10.489 63.349 20.15-.316 27.925 2.071 39.952-7.017 11.823 10.331 33.87 6.642 48.377 6.71l56.731 56.73c-6.913-.726-26.274-.659-33.4-.05-45.628 10.321-29.506 67.577 8.337 63.627 20.154-.316 27.913 2.071 39.95-7.017 10.391 7.779 16.81 7.04 31.22 7.018 14.563-.208 17.8 1.148 28.109-3.918 2.575.538 16.1 4.285 16.783 3.918h1.065c13.045-.477 35.532 1.812 37.083-2.944 29.628-30.2 39.673-31.823-1.931-44.043l-9.01-9.014 10.343-10.343a8 8 0 0 0 1.5-9.235l-14.341-28.681c28.949-71.895 31.987-48.032-.814-83.055v-34.44l19.06 4.765c6.963 7.98 16.648 35.88 28.94 20.3 13.674 13.519 13.442 17.048 28.031 6.279 12.975-9.439 23.784-11.951 18.623-22.028zm-134.656-43.562c-1.149 0-2.293-.028-3.433-.068a90.479 90.479 0 0 0 29.318-23.125 102.73 102.73 0 0 0 37.391-.694 96.249 96.249 0 0 1 -63.276 23.887zm27.134 78.448 12.639 12.639-21.944 4.389c-46.376-31.453-57.011-47.4-65.829-34.79l-14.266-14.266 3.21-6.42h16.983zm-44.377 61-43.443-43.448 21.551-21.551 44.182 31.558zm-58.071-83.448 16 16-12.686 12.686-28.686-28.686zm4.159-27.578-5.789 11.578c-6.971.978-30.955-3.274-35.056 4.686l-6.266-6.266 4.229-8.457 27.926-13.963h38.111v8c-5.714.731-20.178-2.654-23.155 4.422zm132.362-111.971c20.447-2.732 28.711 10.639 24.979 29.839q-1.529 3.109-3.265 6.075a87.171 87.171 0 0 1 -46.292 9.635 118.951 118.951 0 0 0 16.371-45.427c2.78.084 5.545-.018 8.207-.122zm-61.207-124.451c86.346 1.084 149.994 75.49 103.828 154.636-.536-.163-1.114-.342-1.642-.513 1.741-8.432 2.069-19.8-4.845-29.53-17.5-28.79-44.734-7.947-54.281-20.235-8.015-22.4-9.929-30.956-28.966-37.607-7.178-12.517-42.716-43.864-72.537-50.263a112.078 112.078 0 0 1 58.443-16.488zm-43.578 39.155a131.6 131.6 0 0 1 32.971 23.6c-27.151-1.337-55.3-2.7-82.644-4.034l-.008.165-10.993-.554-6.114-33.969c15.196.893 45.208 4.002 66.788 14.792zm-45.089 35.981 86.005 4.336c37.622 4.025 18.63 27.459 40.048 41.1-4.752 39.49-34.615 79.385-75.822 79.391-48.077-20.869-70.197-77.198-50.231-124.827zm-76.212 140.4 77.671-15.536h18a112.6 112.6 0 0 0 11.576 8c-3.237.083-36.6-.534-34.426 1.085l-31.5 15.75c-2.3.356-5.452 7.121-6.633 9.659l-8.081-8.081h-.006a8.2 8.2 0 0 0 -11.444 0h-.006c-2.948 2.95-10.663 10.664-13.585 13.587h-14.921l-4.245-12.733zm-75.121 96.464a16.014 16.014 0 0 1 12-15.474c-5.089 8.666-5.38 21.788 0 30.948a16.014 16.014 0 0 1 -12-15.474zm40 16c-30.127-3.714-12.409-44.826 10.409-28.137a31.537 31.537 0 0 0 -1.375 4.137c-24.114-3.174-21.8 19.733-.017 16a35.55 35.55 0 0 0 1.38 4.158 15.941 15.941 0 0 1 -10.397 3.842zm26.659-7.184c-5.849-8.327-1.451-21.719 9.342-24.3-5.109 8.7-5.377 21.8.014 30.982a15.982 15.982 0 0 1 -9.356-6.682zm21.341-8.816c1.184-21.791 31.448-20.478 32 0-1.262 21.926-31.414 20.389-32 0zm32.044 121.2c-.677-7.237 4.5-14.5 11.868-16.515-5.009 8.652-5.255 21.682.089 30.79a16.044 16.044 0 0 1 -11.957-14.275zm39.956 14.8c-30.134-3.72-12.4-44.828 10.418-28.138a34.49 34.49 0 0 0 -1.41 4.208c-23.774-3.528-22.033 19.857 0 15.859a38.621 38.621 0 0 0 1.387 4.227 15.959 15.959 0 0 1 -10.395 3.844zm26.656-7.178c-5.885-8.084-1.3-21.648 9.269-24.161-5.026 8.662-5.272 21.716.09 30.835a16 16 0 0 1 -9.359-6.674zm37.344 7.178c-21.99-1.248-20.314-31.475 0-32 21.99 1.248 20.314 31.475 0 32zm73.188-12.5-12.5 12.5h-27.713l-4.638-1.159c9.79-18.639-1.038-40.585-19.84-45.7-10.624-2.032-35.153-2.047-43.188.85l-65.131-65.131c19.446-15.989 13.447-45.489-7.734-54.345-9.483-4.3-41.041-3.1-47.252-.64l-5.192-5.188v-20.687c4.7-.57 18.049 1.763 21.682-2.368h.006l10.312-10.318 10.343 10.343 15.991 15.991 40 40h.005c25.868 25.868 78.33 78.332 104 104 13.019 12.652 14.604 17.874 30.849 21.852zm-62.894-76.52 7.671-11.506 23.724 17.793 12.577 25.153-6.266 6.266zm34.362-11.487-17.8-13.352 9.964-14.946 21.838-4.368zm76.364-85.787c-5.808-5.072-15.638-20.423-23.777-10.263-15.567-23.389-7.944-16.9-37.622-24.784-16.069-5.23-20.41-1.876-19.621 11.013v28.728l-56-31.111v-15.955c25 7.756 55.208 5.656 79-5.751l59.692 24.87 10.218 15.328z"/><rect height="16" rx="8" width="16" x="232" y="128"/><rect height="16" rx="8" width="16" x="312" y="128"/><path d="m294.971 150.971-.014-.014a7.938 7.938 0 0 0 -8.887-1.648 14.708 14.708 0 0 1 -12.14 0 7.938 7.938 0 0 0 -8.887 1.648 8.007 8.007 0 0 0 2.48 12.99 31 31 0 0 0 25.246-.117 7.961 7.961 0 0 0 2.202-12.859z"/></g></svg>