<svg height="512" viewBox="0 0 60 60" width="512" xmlns="http://www.w3.org/2000/svg"><g id="040---Group-Excursion"><path id="Shape" d="m13 50c-1.6568542 0-3 1.3431458-3 3s1.3431458 3 3 3 3-1.3431458 3-3-1.3431458-3-3-3zm0 4c-.5522847 0-1-.4477153-1-1s.4477153-1 1-1 1 .4477153 1 1-.4477153 1-1 1z"/><path id="Shape" d="m46 50c-1.6568542 0-3 1.3431458-3 3s1.3431458 3 3 3 3-1.3431458 3-3-1.3431458-3-3-3zm0 4c-.5522847 0-1-.4477153-1-1s.4477153-1 1-1 1 .4477153 1 1-.4477153 1-1 1z"/><path id="Shape" d="m52 24h-2.4c1.6135893-7.9464193-1.7304574-16.08072231-8.4665141-20.59456656s-15.5309151-4.51384425-22.2669718 0-10.08010336 12.64814726-8.4665141 20.59456656h-4.4c-3.31233757.0033074-5.99669262 2.6876624-6 6v18c-.0001427 1.6052573.64296824 3.1436309 1.78554866 4.2711774 1.14258043 1.1275464 2.68933672 1.750226 4.29445134 1.7288226.49429504 3.441787 3.44289982 5.9971786 6.92 5.9971786 3.4771002 0 6.425705-2.5553916 6.92-5.9971786h19.16c.494295 3.441787 3.4428998 5.9971786 6.92 5.9971786s6.425705-2.5553916 6.92-5.9971786h4.08c1.6568542 0 3-1.3431458 3-3v-19c-.0049599-4.4162219-3.5837781-7.9950401-8-8zm-13.34 14c2.4134958-1.1658006 4.5691856-2.8029688 6.34-4.815v4.815zm8.34-7.517c.1-.16.2-.32.294-.483h3.706c1.1045695 0 2 .8954305 2 2v9h-4c-1.1045695 0-2-.8954305-2-2zm-17-28.483c9.9411255 0 18 8.0588745 18 18s-8.0588745 18-18 18-18-8.0588745-18-18c.0110223-9.9365563 8.0634437-17.98897774 18-18zm-20 36c-1.65685425 0-3-1.3431458-3-3v-5h5.706c.3930759.6742709.8251429 1.3250425 1.294 1.949v6.051zm6-3.741c1.5641834 1.52974 3.3679826 2.7934128 5.34 3.741h-5.34zm-3 23.741c-2.7614237 0-5-2.2385763-5-5s2.2385763-5 5-5 5 2.2385763 5 5c-.0033061 2.7600532-2.2399468 4.9966939-5 5zm33 0c-2.7614237 0-5-2.2385763-5-5s2.2385763-5 5-5 5 2.2385763 5 5c-.0033061 2.7600532-2.2399468 4.9966939-5 5zm12-10h-2v-2h2zm0-4h-2c-1.1045695 0-2 .8954305-2 2v2c0 1.1045695.8954305 2 2 2h2v1c0 .5522847-.4477153 1-1 1h-4.08c-.494295-3.441787-3.4428998-5.9971786-6.92-5.9971786s-6.425705 2.5553916-6.92 5.9971786h-19.16c-.494295-3.441787-3.4428998-5.9971786-6.92-5.9971786-3.47710018 0-6.42570496 2.5553916-6.92 5.9971786-1.07465847.0214975-2.11274777-.3904204-2.88028572-1.1429086-.76753795-.7524881-1.19992928-1.782218-1.19971428-2.8570914v-18c0-2.209139 1.790861-4 4-4h4.922c.2170844.6798831.4707884 1.3475252.76 2h-4.682c-1.1045695 0-2 .8954305-2 2v5c.00330612 2.7600532 2.23994685 4.9966939 5 5h35.142c.4545933 1.7606851 2.0395884 2.9931852 3.858 3h4c1.1045695 0 2-.8954305 2-2v-9c0-2.209139-1.790861-4-4-4h-2.682c.2892116-.6524748.5429156-1.3201169.76-2h2.922c3.3123376.0033074 5.9966926 2.6876624 6 6z"/><path id="Shape" d="m42 42h-37c-.55228475 0-1 .4477153-1 1s.44771525 1 1 1h37c.5522847 0 1-.4477153 1-1s-.4477153-1-1-1z"/><path id="Shape" d="m30 17c1.6568542 0 3-1.3431458 3-3s-1.3431458-3-3-3-3 1.3431458-3 3 1.3431458 3 3 3zm0-4c.5522847 0 1 .4477153 1 1s-.4477153 1-1 1-1-.4477153-1-1 .4477153-1 1-1z"/><path id="Shape" d="m22 15c1.6568542 0 3-1.3431458 3-3s-1.3431458-3-3-3-3 1.3431458-3 3 1.3431458 3 3 3zm0-4c.5522847 0 1 .4477153 1 1s-.4477153 1-1 1-1-.4477153-1-1 .4477153-1 1-1z"/><path id="Shape" d="m24 27.111c-.0144715 1.0274079.8056217 1.8725559 1.833 1.889h8.334c1.0273783-.0164441 1.8474715-.8615921 1.833-1.889 0-.161-.678-.111 6.17-.111 1.0265954-.0180771 1.8450396-.8633556 1.83-1.89v-1.78c0-6.248-7.771-8.715-11.012-3.481-1.8311431-1.1321254-4.1448569-1.1321254-5.976 0-3.242-5.237-11.012-2.766-11.012 3.481v1.78c-.0150396 1.0266444.8034046 1.8719229 1.83 1.89 6.856 0 6.17-.05 6.17.111zm18-3.781v1.67h-6.016c-.0624796-1.3888635-.5693705-2.720942-1.446-3.8 2.008-3.876 7.462-2.288 7.462 2.13zm-8 2v1.67h-8v-1.667c-.0857185-2.2987935 1.7016968-4.2350112 4-4.333 2.2983032.0979888 4.0857185 2.0342065 4 4.333zm-16-2c0-4.358 5.433-6.048 7.462-2.127-.8760308 1.0782437-1.3828856 2.4091757-1.446 3.797h-6.016z"/><path id="Shape" d="m38 15c1.6568542 0 3-1.3431458 3-3s-1.3431458-3-3-3-3 1.3431458-3 3 1.3431458 3 3 3zm0-4c.5522847 0 1 .4477153 1 1s-.4477153 1-1 1-1-.4477153-1-1 .4477153-1 1-1z"/></g></svg>