<?xml version="1.0" encoding="iso-8859-1"?>
<!-- Generator: Adobe Illustrator 19.0.0, SVG Export Plug-In . SVG Version: 6.00 Build 0)  -->
<svg version="1.1" id="Capa_1" xmlns="http://www.w3.org/2000/svg" xmlns:xlink="http://www.w3.org/1999/xlink" x="0px" y="0px"
	 viewBox="0 0 512 512" style="enable-background:new 0 0 512 512;" xml:space="preserve">
<path style="fill:#45A2FF;" d="M61.138,54.106h23.119l3.898-11.543c3.423-2.457,5.882-4.222,9.305-6.679h15.684
	c3.423,2.457,5.882,4.222,9.305,6.679l3.898,11.543h11.389c4.581,4.581,7.149,7.149,11.73,11.73v17.381H49.407v-17.38
	C53.988,61.255,56.557,58.687,61.138,54.106z"/>
<g>
	<path style="fill:#2488FF;" d="M105.341,42.563c3.164-2.271,5.514-3.958,8.554-6.14c-0.249-0.178-0.492-0.353-0.751-0.539H97.46
		c-3.423,2.457-5.882,4.222-9.305,6.679l-3.898,11.543h17.186L105.341,42.563z"/>
	<path style="fill:#2488FF;" d="M78.324,54.106H61.138c-4.581,4.581-7.149,7.149-11.73,11.73v17.38h17.186v-17.38L78.324,54.106z"/>
</g>
<path style="fill:#45A2FF;" d="M467.6,228.183h-22.405l-3.778-11.187c-3.317-2.381-5.7-4.092-9.017-6.472h-15.2
	c-3.317,2.381-5.7,4.092-9.017,6.472l-3.778,11.187h-11.037c-4.439,4.439-6.929,6.929-11.368,11.368v16.844h96.968v-16.844
	C474.529,235.111,472.04,232.622,467.6,228.183z"/>
<path style="fill:#2488FF;" d="M411.322,228.183h11.037l3.778-11.187c2.839-2.038,4.998-3.588,7.64-5.484
	c-0.445-0.319-0.899-0.646-1.377-0.988h-15.2c-3.317,2.381-5.7,4.092-9.017,6.472l-3.778,11.187h-11.037
	c-4.44,4.439-6.929,6.929-11.368,11.368v16.844h17.954v-16.844L411.322,228.183z"/>
<polygon style="fill:#FF456D;" points="454.09,170.02 454.09,128.197 318.69,128.197 318.69,128.145 214.132,128.145 
	214.132,128.197 76.776,128.197 76.776,170.02 214.132,170.02 214.132,273.369 170.464,445.001 210.995,455.314 250.959,298.242 
	290.509,298.242 331.745,339.478 282.991,388.231 312.564,417.805 390.892,339.478 318.69,267.276 318.69,170.02 "/>
<g>
	<rect x="214.13" y="128.15" style="fill:#FF0C38;" width="25.632" height="0.052"/>
	<rect x="76.78" y="128.2" style="fill:#FF0C38;" width="25.632" height="41.823"/>
	<polygon style="fill:#FF0C38;" points="308.623,388.231 357.376,339.478 316.14,298.242 290.509,298.242 331.745,339.478 
		282.991,388.231 312.564,417.805 325.38,404.989 	"/>
	<polygon style="fill:#FF0C38;" points="196.095,445.001 239.763,273.369 239.763,170.02 214.132,170.02 214.132,273.369 
		170.464,445.001 210.995,455.314 212.554,449.189 	"/>
</g>
<circle style="fill:#45A2FF;" cx="213.3" cy="361.6" r="20.956"/>
<g>
	<circle style="fill:#ADDFBB;" cx="227.63" cy="488.12" r="16.381"/>
	<circle style="fill:#ADDFBB;" cx="362.05" cy="452.1" r="16.381"/>
</g>
<g>
	<path style="fill:#45A2FF;" d="M160.142,167.929c0-11.779-9.549-21.328-21.328-21.328s-21.328,9.549-21.328,21.328
		c0,0.706,0.039,1.403,0.106,2.091h42.445C160.103,169.332,160.142,168.635,160.142,167.929z"/>
	<path style="fill:#45A2FF;" d="M394.009,146.601c-11.779,0-21.328,9.549-21.328,21.328c0,0.706,0.039,1.403,0.106,2.091h42.445
		c0.067-0.688,0.106-1.385,0.106-2.091C415.337,156.15,405.788,146.601,394.009,146.601z"/>
	<path style="fill:#45A2FF;" d="M372.201,320.787c-7.044,3.483-11.9,10.72-11.9,19.11c0,8.167,4.594,15.254,11.335,18.837
		l19.256-19.256L372.201,320.787z"/>
</g>
<circle style="fill:#FFC477;" cx="266.41" cy="67.822" r="60.32"/>
<path style="fill:#FFA733;" d="M233.178,67.822c0-28.656,19.988-52.627,46.778-58.776c-4.356-1-8.885-1.546-13.545-1.546
	c-33.315,0-60.322,27.007-60.322,60.322s27.007,60.322,60.322,60.322c4.659,0,9.189-0.546,13.545-1.546
	C253.166,120.449,233.178,96.478,233.178,67.822z"/>
<path style="fill:#45A2FF;" d="M326.733,67.822h-69.422c-4.345,0-7.868,3.522-7.868,7.868v5.592c0,9.743-7.898,17.641-17.641,17.641
	l-17.089,0.001c-5.802-9.623-8.992-20.997-8.592-33.142c1.054-31.971,27.444-57.831,59.43-58.276
	C299.261,7.037,326.733,34.221,326.733,67.822z"/>
<path style="fill:#2488FF;" d="M227.722,65.782c0.943-28.604,22.172-52.301,49.539-57.297c-3.793-0.689-7.705-1.035-11.709-0.98
	c-31.986,0.445-58.375,26.305-59.43,58.276c-0.401,12.145,2.79,23.519,8.592,33.142l17.089-0.001c1.452,0,2.856-0.195,4.206-0.526
	C230.405,88.887,227.329,77.708,227.722,65.782z"/>
<path style="fill:#D8D7DA;" d="M76.776,353.888c0,83.181,67.431,150.612,150.612,150.612h39.023H7.5V296.898h69.276V353.888z"/>
<rect x="7.5" y="296.9" style="fill:#ACABB1;" width="35.809" height="207.6"/>
<path style="fill:#D8D7DA;" d="M435.224,353.888c0,83.181-67.431,150.612-150.612,150.612h-39.023H504.5V296.898h-69.276V353.888z"
	/>
<path style="fill:#ACABB1;" d="M466.915,353.888v-56.989h-31.691v56.989c0,83.181-67.431,150.612-150.612,150.612h31.691
	C399.484,504.5,466.915,437.069,466.915,353.888z"/>
<g>
	<path style="fill:#1D1D1F;" d="M156.966,62.73l-16.124-16.124h-9.112l-2.948-8.729l-13.225-9.493h-20.51l-13.226,9.493
		l-2.948,8.729H58.031L41.907,62.73v27.987h115.059V62.73z M141.966,75.717H56.907v-6.774l7.337-7.337H89.64l4.848-14.357
		l5.385-3.865h10.858l5.384,3.865l4.849,14.357h13.666l7.337,7.337v6.774H141.966z"/>
	<path style="fill:#1D1D1F;" d="M447.751,212.311l-12.938-9.287h-20.026l-12.938,9.287l-2.828,8.373h-8.76l-15.761,15.76v27.45
		h111.968v-27.45l-15.761-15.761h-20.128L447.751,212.311z M471.468,242.657v6.237H389.5v-6.237l6.975-6.975h13.314l4.729-14.001
		l5.096-3.658h10.374l5.097,3.659l4.728,14.001h24.682L471.468,242.657z"/>
	<rect x="75.19" y="243.07" style="fill:#1D1D1F;" width="15" height="15"/>
	<rect x="100.19" y="243.07" style="fill:#1D1D1F;" width="15" height="15"/>
	<rect x="125.19" y="243.07" style="fill:#1D1D1F;" width="41.36" height="15"/>
	<rect x="56.623" y="204.4" style="fill:#1D1D1F;" width="60" height="15"/>
	<rect x="131.62" y="204.4" style="fill:#1D1D1F;" width="17.565" height="15"/>
	<path style="fill:#1D1D1F;" d="M338.347,449.255c-0.111,0.933-0.175,1.88-0.175,2.842c0,13.168,10.713,23.881,23.881,23.881
		c13.167,0,23.88-10.713,23.88-23.881c0-5.365-1.779-10.321-4.777-14.313l18.117-4.854l10.521-19.072l-13.135-7.245l-7.436,13.481
		l-201.118,53.889l-13.188-7.956l-7.748,12.844l18.654,11.252l18.102-4.85c-0.111,0.933-0.175,1.88-0.175,2.842
		c0,13.168,10.713,23.881,23.881,23.881s23.881-10.713,23.881-23.881c0-5.365-1.779-10.322-4.777-14.313L338.347,449.255z
		 M362.053,460.978c-4.897,0-8.881-3.984-8.881-8.881c0-4.896,3.984-8.88,8.881-8.88c4.896,0,8.88,3.984,8.88,8.88
		C370.933,456.994,366.949,460.978,362.053,460.978z M227.63,496.996c-4.897,0-8.881-3.984-8.881-8.881s3.984-8.881,8.881-8.881
		s8.881,3.984,8.881,8.881S232.527,496.996,227.63,496.996z"/>
	<path style="fill:#1D1D1F;" d="M224.005,120.697H69.275v56.823h137.356v94.91l-45.286,177.99l55.068,14.012l40.375-158.69h30.613
		l33.736,33.736l-48.754,48.753l40.18,40.18l88.934-88.934l-75.308-75.308V177.52h135.4v-56.823H308.817
		c15.481-12.441,25.417-31.514,25.417-52.875C334.233,30.425,303.809,0,266.411,0s-67.822,30.425-67.822,67.822
		C198.589,89.182,208.524,108.256,224.005,120.697z M84.275,135.697h47.038v4.399c-10.565,2.85-18.742,11.565-20.812,22.424H84.275
		V135.697z M126.087,162.52c2.11-4.945,7.02-8.419,12.727-8.419s10.617,3.475,12.727,8.419H126.087z M213.297,375.053
		c-7.42,0-13.456-6.036-13.456-13.456c0-7.42,6.036-13.456,13.456-13.456c7.419,0,13.456,6.036,13.456,13.456
		C226.753,369.017,220.717,375.053,213.297,375.053z M205.577,446.196l-25.995-6.614l14.506-57.013
		c5.066,4.644,11.812,7.484,19.21,7.484c2.334,0,4.601-0.288,6.773-0.821L205.577,446.196z M293.598,388.231l40.835-40.835h19.365
		c1.204,4.476,3.461,8.586,6.584,11.985l-47.817,47.817L293.598,388.231z M380.285,339.478l-9.274,9.274
		c-2.042-2.444-3.21-5.558-3.21-8.856c0-3.522,1.314-6.805,3.602-9.301L380.285,339.478z M311.19,162.52v107.862l49.594,49.594
		c-3.342,3.475-5.74,7.738-6.991,12.42H335.27l-41.655-41.654h-48.487l-12.678,49.829c-5.059-4.613-11.783-7.43-19.153-7.43
		c-2.361,0-4.653,0.294-6.848,0.838l15.182-59.672V162.52h-54.506c-2.07-10.859-10.247-19.574-20.812-22.424v-4.399h240.195v4.399
		c-10.565,2.85-18.742,11.565-20.812,22.424H311.19z M381.282,162.52c2.11-4.945,7.021-8.419,12.727-8.419
		s10.617,3.475,12.727,8.419H381.282z M446.59,162.52h-24.269c-2.07-10.859-10.247-19.574-20.812-22.424v-4.399h45.081
		L446.59,162.52L446.59,162.52z M266.411,120.645c-13.904,0-26.563-5.409-36.005-14.222h1.396c13.863,0,25.141-11.278,25.141-25.141
		V75.69c0-0.203,0.165-0.368,0.368-0.368h61.38C315.038,100.908,292.991,120.645,266.411,120.645z M266.411,15
		c26.58,0,48.627,19.737,52.281,45.322h-61.38c-8.474,0-15.368,6.894-15.368,15.368v5.592c0,5.592-4.549,10.141-10.142,10.141
		l-12.627,0.001c-3.566-7.109-5.587-15.121-5.587-23.601C213.589,38.696,237.285,15,266.411,15z"/>
	<rect x="453.1" y="317.98" style="fill:#1D1D1F;" width="15" height="83.24"/>
	<path style="fill:#1D1D1F;" d="M84.275,353.888v-64.489H0V512h200.988v-17.303l-5.819-1.338
		C129.876,478.34,84.275,420.988,84.275,353.888z M15,497V304.398h54.275v49.489c0,35.98,12.411,71.193,34.946,99.152
		c15.118,18.757,34.367,33.789,55.937,43.96L15,497L15,497z"/>
	<path style="fill:#1D1D1F;" d="M427.725,289.398v64.489c0,34.446-12.414,67.73-34.954,93.719l11.332,9.828
		c24.906-28.716,38.622-65.49,38.622-103.547v-49.489H497V497H351.889c1.884-0.885,3.748-1.808,5.595-2.769l-6.923-13.307
		C330.058,491.591,307.869,497,284.612,497H258v15h254V289.398H427.725z"/>
</g>
<g>
	<path style="fill:#FFFFFF;" d="M241.415,54.657l-13.264-7.005c2.848-5.394,6.728-10.045,11.53-13.825l9.277,11.787
		C245.86,48.053,243.251,51.18,241.415,54.657z M288.954,50.804c-3.53-4.667-8.319-8.078-13.85-9.865l4.612-14.273
		c8.474,2.738,15.805,7.956,21.201,15.089L288.954,50.804z M255.763,41.653l-5.66-13.891c5.182-2.112,10.669-3.183,16.307-3.184
		c0.477,0,0.951,0.008,1.423,0.023l-0.486,14.992C263.383,39.467,259.427,40.16,255.763,41.653z"/>
	<path style="fill:#FFFFFF;" d="M42.628,458.135h-15v-90.829h15V458.135z M42.628,357.307h-15v-15h15V357.307z M42.628,332.307h-15
		v-15h15V332.307z"/>
	<path style="fill:#FFFFFF;" d="M301,267.688h-15v-54.333h15V267.688z M301,203.354h-15v-15h15V203.354z M301,178.354h-15v-15h15
		V178.354z"/>
</g>
<g>
</g>
<g>
</g>
<g>
</g>
<g>
</g>
<g>
</g>
<g>
</g>
<g>
</g>
<g>
</g>
<g>
</g>
<g>
</g>
<g>
</g>
<g>
</g>
<g>
</g>
<g>
</g>
<g>
</g>
</svg>
