<svg height="64" width="64" xmlns="http://www.w3.org/2000/svg"><rect id="backgroundrect" width="100%" height="100%" x="0" y="0" fill="none" stroke="none"/><g class="currentLayer" style=""><title>Layer 1</title><g id="outline"><path d="m56 22h-7a1 1 0 0 0 -1 1v2c0 11.479-10.429 18.011-16.084 19-12.092-.041-21.916-8.548-21.916-19v-2a1 1 0 0 0 -1-1h-1v-8h-6v2h4v2h-4v2h4v2h-3a1 1 0 0 0 -1 1v26a1 1 0 0 0 1 1h58a1 1 0 0 0 1-1v-26a1 1 0 0 0 -1-1h-3v-2h4v-2h-4v-2h4v-2h-6zm-6 3v-1h4v1c0 8.115-5.924 15.055-14.231 17.773 5.208-3.414 10.231-9.402 10.231-17.773zm10 23h-56v-24h4v1c0 11.58 10.767 21 24 21s24-9.42 24-21v-1h4z" id="svg_1"/><path d="m8 38h-2v8h4v-2h-2z" id="svg_2"/><path d="m12 44h2v2h-2z" id="svg_3"/><path d="m16 44h2v2h-2z" id="svg_4"/><path d="m56 44h-2v2h4v-5h-2z" id="svg_5"/><path d="m50 44h2v2h-2z" id="svg_6"/></g><path fill="#4a90d6" fill-opacity="1" stroke="#222222" stroke-opacity="1" stroke-width="5" stroke-dasharray="none" stroke-linejoin="round" stroke-linecap="butt" stroke-dashoffset="" fill-rule="nonzero" opacity="1" marker-start="" marker-mid="" marker-end="" d="M29.77777935564518,9.777777120471L29.979799568653103,32.20202076435089" id="svg_7"/><path fill="#4a90d6" fill-opacity="1" stroke="#222222" stroke-opacity="1" stroke-width="5" stroke-dasharray="none" stroke-linejoin="round" stroke-linecap="butt" stroke-dashoffset="" fill-rule="nonzero" opacity="1" marker-start="" marker-mid="" marker-end="" d="M18.868687853217125,20.48484840989113L40.88889107108116,20.2828281968832" id="svg_9"/></g></svg>